HIERARCHY
ROOT Hips
{
  OFFSET 5.80788e-005 67.184 3.4734
  CHANNELS 6 Xposition Yposition Zposition Zrotation Xrotation Yrotation
  JOINT Chest
  {
    OFFSET 0 8.7983 -4.7612
    CHANNELS 3 Zrotation Xrotation Yrotation
    JOINT Chest2
    {
      OFFSET 0 8.0291 0.4195
      CHANNELS 3 Zrotation Xrotation Yrotation
      JOINT Chest3
      {
        OFFSET 0 9.9351 -2.2114
        CHANNELS 3 Zrotation Xrotation Yrotation
        JOINT Neck
        {
          OFFSET 0 22.3885 -0.4656
          CHANNELS 3 Zrotation Xrotation Yrotation
          JOINT Head
          {
            OFFSET -0.0001 12.643 3.4389
            CHANNELS 3 Zrotation Xrotation Yrotation
            End Site
            {
              OFFSET 0.0001 17.6655 0.5274
            }
          }
        }
        JOINT LeftCollar
        {
          OFFSET 2.2603 21.606 7.4023
          CHANNELS 3 Zrotation Xrotation Yrotation
          JOINT LeftShoulder
          {
            OFFSET 13.5163 -1.1332 -5.0146
            CHANNELS 3 Zrotation Xrotation Yrotation
            JOINT LeftElbow
            {
              OFFSET -0.0995 -28.05 -0.2431
              CHANNELS 3 Zrotation Xrotation Yrotation
              JOINT LeftWrist
              {
                OFFSET 0.0679 -23.3996 -0.1402
                CHANNELS 3 Zrotation Xrotation Yrotation
                JOINT LeftFinger1
                {
                  OFFSET 0.7932 -9.069 2.5189
                  CHANNELS 3 Zrotation Xrotation Yrotation
                  JOINT LeftFinger11
                  {
                    OFFSET -0.8272 -3.3923 0.5977
                    CHANNELS 3 Zrotation Xrotation Yrotation
                    JOINT LeftFinger12
                    {
                      OFFSET -0.5649 -2.3158 0.4082
                      CHANNELS 3 Zrotation Xrotation Yrotation
                      End Site
                      {
                        OFFSET -0.4919 -1.6479 0.2673
                      }
                    }
                  }
                }
                JOINT LeftFinger2
                {
                  OFFSET 0.9159 -9.2044 0.2193
                  CHANNELS 3 Zrotation Xrotation Yrotation
                  JOINT LeftFinger21
                  {
                    OFFSET 0.0117 -4.1944 -0.0248
                    CHANNELS 3 Zrotation Xrotation Yrotation
                    JOINT LeftFinger22
                    {
                      OFFSET 0.0071 -2.3249 -0.0142
                      CHANNELS 3 Zrotation Xrotation Yrotation
                      End Site
                      {
                        OFFSET -0.1475 -2.0882 0.0028
                      }
                    }
                  }
                }
                JOINT LeftFinger3
                {
                  OFFSET 0.6113 -8.7231 -2.0637
                  CHANNELS 3 Zrotation Xrotation Yrotation
                  JOINT LeftFinger31
                  {
                    OFFSET -0.1927 -3.8059 -0.2383
                    CHANNELS 3 Zrotation Xrotation Yrotation
                    JOINT LeftFinger32
                    {
                      OFFSET -0.1091 -2.1688 -0.1362
                      CHANNELS 3 Zrotation Xrotation Yrotation
                      End Site
                      {
                        OFFSET -0.2358 -1.9176 -0.0906
                      }
                    }
                  }
                }
                JOINT LeftFinger4
                {
                  OFFSET -0.6151 -8.0947 -3.5641
                  CHANNELS 3 Zrotation Xrotation Yrotation
                  JOINT LeftFinger41
                  {
                    OFFSET -0.4882 -2.341 -0.6462
                    CHANNELS 3 Zrotation Xrotation Yrotation
                    JOINT LeftFinger42
                    {
                      OFFSET -0.3575 -1.7167 -0.4742
                      CHANNELS 3 Zrotation Xrotation Yrotation
                      End Site
                      {
                        OFFSET -0.4187 -1.5237 -0.3496
                      }
                    }
                  }
                }
                JOINT LeftFinger0
                {
                  OFFSET -1.42 -1.8761 1.4223
                  CHANNELS 3 Zrotation Xrotation Yrotation
                  JOINT LeftFinger01
                  {
                    OFFSET -1.1471 -3.4929 2.6334
                    CHANNELS 3 Zrotation Xrotation Yrotation
                    JOINT LeftFinger02
                    {
                      OFFSET -0.823 -2.3 1.6571
                      CHANNELS 3 Zrotation Xrotation Yrotation
                      End Site
                      {
                        OFFSET -0.5822 -1.6914 1.1582
                      }
                    }
                  }
                }
              }
            }
          }
        }
        JOINT RightCollar
        {
          OFFSET -2.2603 21.606 7.4023
          CHANNELS 3 Zrotation Xrotation Yrotation
          JOINT RightShoulder
          {
            OFFSET -13.5187 -1.1334 -5.0155
            CHANNELS 3 Zrotation Xrotation Yrotation
            JOINT RightElbow
            {
              OFFSET 0.0994 -28.0499 -0.2431
              CHANNELS 3 Zrotation Xrotation Yrotation
              JOINT RightWrist
              {
                OFFSET -0.0679 -23.3996 -0.1402
                CHANNELS 3 Zrotation Xrotation Yrotation
                JOINT RightFinger1
                {
                  OFFSET -0.7932 -9.0691 2.5189
                  CHANNELS 3 Zrotation Xrotation Yrotation
                  JOINT RightFinger11
                  {
                    OFFSET 0.8272 -3.3923 0.5977
                    CHANNELS 3 Zrotation Xrotation Yrotation
                    JOINT RightFinger12
                    {
                      OFFSET 0.565 -2.3158 0.4082
                      CHANNELS 3 Zrotation Xrotation Yrotation
                      End Site
                      {
                        OFFSET 0.4919 -1.6479 0.2673
                      }
                    }
                  }
                }
                JOINT RightFinger2
                {
                  OFFSET -0.916 -9.2044 0.2193
                  CHANNELS 3 Zrotation Xrotation Yrotation
                  JOINT RightFinger21
                  {
                    OFFSET -0.0117 -4.1944 -0.0248
                    CHANNELS 3 Zrotation Xrotation Yrotation
                    JOINT RightFinger22
                    {
                      OFFSET -0.0071 -2.3249 -0.0142
                      CHANNELS 3 Zrotation Xrotation Yrotation
                      End Site
                      {
                        OFFSET 0.1475 -2.0882 0.0028
                      }
                    }
                  }
                }
                JOINT RightFinger3
                {
                  OFFSET -0.6113 -8.7231 -2.0637
                  CHANNELS 3 Zrotation Xrotation Yrotation
                  JOINT RightFinger31
                  {
                    OFFSET 0.1927 -3.8059 -0.2383
                    CHANNELS 3 Zrotation Xrotation Yrotation
                    JOINT RightFinger32
                    {
                      OFFSET 0.1091 -2.1688 -0.1362
                      CHANNELS 3 Zrotation Xrotation Yrotation
                      End Site
                      {
                        OFFSET 0.2358 -1.9176 -0.0906
                      }
                    }
                  }
                }
                JOINT RightFinger4
                {
                  OFFSET 0.6151 -8.0947 -3.564
                  CHANNELS 3 Zrotation Xrotation Yrotation
                  JOINT RightFinger41
                  {
                    OFFSET 0.4882 -2.341 -0.6462
                    CHANNELS 3 Zrotation Xrotation Yrotation
                    JOINT RightFinger42
                    {
                      OFFSET 0.3574 -1.7166 -0.4742
                      CHANNELS 3 Zrotation Xrotation Yrotation
                      End Site
                      {
                        OFFSET 0.4187 -1.5237 -0.3496
                      }
                    }
                  }
                }
                JOINT RightFinger0
                {
                  OFFSET 1.4199 -1.8761 1.4221
                  CHANNELS 3 Zrotation Xrotation Yrotation
                  JOINT RightFinger01
                  {
                    OFFSET 1.1472 -3.4929 2.6336
                    CHANNELS 3 Zrotation Xrotation Yrotation
                    JOINT RightFinger02
                    {
                      OFFSET 0.8229 -2.3 1.6571
                      CHANNELS 3 Zrotation Xrotation Yrotation
                      End Site
                      {
                        OFFSET 0.5822 -1.6914 1.1582
                      }
                    }
                  }
                }
              }
            }
          }
        }
      }
    }
  }
  JOINT RightHip
  {
    OFFSET -9.412 3.9771 -0.7758
    CHANNELS 3 Zrotation Xrotation Yrotation
    JOINT RightKnee
    {
      OFFSET -0.7531 -40.938 0
      CHANNELS 3 Zrotation Xrotation Yrotation
      JOINT RightAnkle
      {
        OFFSET 0 -40.1986 0
        CHANNELS 3 Zrotation Xrotation Yrotation
        JOINT RightToe
        {
          OFFSET 0 -4.4182 9.239
          CHANNELS 3 Zrotation Xrotation Yrotation
          End Site
          {
            OFFSET 0 0 6.1981
          }
        }
      }
    }
  }
  JOINT LeftHip
  {
    OFFSET 9.4119 3.9773 -0.7758
    CHANNELS 3 Zrotation Xrotation Yrotation
    JOINT LeftKnee
    {
      OFFSET 0.7532 -40.9383 0
      CHANNELS 3 Zrotation Xrotation Yrotation
      JOINT LeftAnkle
      {
        OFFSET 0 -40.1986 0
        CHANNELS 3 Zrotation Xrotation Yrotation
        JOINT LeftToe
        {
          OFFSET 0 -4.4182 9.239
          CHANNELS 3 Zrotation Xrotation Yrotation
          End Site
          {
            OFFSET 0 0 6.1981
          }
        }
      }
    }
  }
}
MOTION
Frames:	6
Frame Time:	0.0333333
39.848 63.996 7.77526 1.89093e-007 -13.1744 4.79396e-009 -0.198246 6.70843 -0.115254 -0.386818 13.4172 -0.209121 -0.386819 13.4173 -0.209121 -2.00715e-006 -30.6108 -9.80854e-007 -2.49781e-007 -0.613745 -1.72078e-007 -8.00266 -0.194417 -12.5014 30.2466 4.06749 21.3943 -5.14602 -25.5107 -2.00806 -6.88342 1.25944 -0.137969 -1.63997e-015 0 -1.98785e-016 -1.6524e-015 0 -9.93923e-017 6.27048e-008 1.55815e-009 4.22251e-007 -1.63997e-015 0 -1.98785e-016 -0.0129102 0.00234148 8.57726e-005 1.5672e-008 -8.44659e-007 1.05563e-007 -1.63997e-015 0 -1.98785e-016 -0.0160847 0.00300062 0.000859991 1.56708e-008 -8.44271e-007 1.05564e-007 -1.63997e-015 0 -1.98785e-016 -0.0127165 0.00315284 0.00285556 6.26821e-008 1.55388e-009 4.22255e-007 -1.63997e-015 0 -1.98785e-016 -1.6524e-015 0 -9.93923e-017 6.27048e-008 1.55815e-009 4.22251e-007 7.13351 -0.0288265 7.03564 -30.2218 2.57709 -16.6909 4.99808 -25.5434 1.62498 6.87364 1.25171 0.312694 5.9229e-006 2.04587e-006 -3.86428e-007 -3.57812e-015 0 -1.98785e-016 -1.88845e-015 0 -0 5.9229e-006 2.04587e-006 -3.86428e-007 0.0129522 0.00231677 -8.79401e-005 -2.36057e-015 7.95139e-016 9.93923e-016 5.9229e-006 2.04587e-006 -3.86428e-007 0.0163167 0.00303043 -0.000873157 3.2551e-015 0 -1.98785e-016 5.9229e-006 2.04587e-006 -3.86428e-007 0.0145747 0.00367714 -0.00326216 -5.12484e-008 3.66153e-010 -4.2367e-007 5.9229e-006 2.04587e-006 -3.86428e-007 -3.57812e-015 0 -1.98785e-016 -1.88845e-015 0 -0 -6.24697 -5.60744 -13.1248 -2.40333 44.5931 1.84152 11.4555 -22.1569 -2.4569 -3.55328e-015 1.98785e-016 -0 7.2051 -5.47725 13.0586 2.10532 44.3291 -1.69092 -12.2754 -21.7495 2.06629 8.45891e-007 2.56883e-007 4.8035e-008 
39.848 63.9366 7.66884 -9.11205e-008 -12.4982 -1.40106e-007 -0.200862 6.5745 -0.116733 -0.392051 13.1494 -0.212203 -0.392052 13.1494 -0.212204 -5.29125e-007 -30.1179 -1.5299e-007 -1.79933e-007 -0.613744 -1.52054e-007 -8.00266 -0.194456 -12.5014 30.2466 4.06749 21.3943 -5.14599 -25.5106 -2.00804 -6.88341 1.25943 -0.137974 6.26573e-008 1.55455e-009 4.22258e-007 -3.91608e-008 -1.6905e-006 -2.63911e-007 1.25315e-007 3.10911e-009 8.44517e-007 6.26573e-008 1.55455e-009 4.22258e-007 -0.0128226 0.00232536 8.53933e-005 7.83008e-008 -8.42731e-007 5.27826e-007 6.26573e-008 1.55455e-009 4.22258e-007 -0.0161035 0.0030033 0.000859103 6.26357e-008 1.55247e-009 4.22262e-007 6.26573e-008 1.55455e-009 4.22258e-007 -0.0126408 0.00313516 0.00283919 -7.01579e-007 3.21477e-008 9.68028e-007 6.26573e-008 1.55455e-009 4.22258e-007 -3.91608e-008 -1.6905e-006 -2.63911e-007 1.25315e-007 3.10911e-009 8.44517e-007 7.13352 -0.0288631 7.03565 -30.2218 2.57709 -16.6909 4.99804 -25.5434 1.62496 6.87366 1.25173 0.312701 -1.69164e-005 -2.41715e-006 1.27957e-007 -6.57434e-006 -1.64312e-006 6.23167e-007 1.28063e-007 -4.25249e-007 1.05918e-006 -1.69164e-005 -2.41715e-006 1.27957e-007 0.0129486 0.00231682 -8.5866e-005 -3.45091e-006 -8.22995e-007 6.29138e-007 -1.69164e-005 -2.41715e-006 1.27957e-007 0.0163383 0.00303854 -0.00087415 1.28014e-007 -1.27343e-006 1.05919e-006 -1.69164e-005 -2.41715e-006 1.27957e-007 0.0145933 0.00368199 -0.00326562 1.28001e-007 -1.27338e-006 1.05919e-006 -1.69164e-005 -2.41715e-006 1.27957e-007 -6.57434e-006 -1.64312e-006 6.23167e-007 1.28063e-007 -4.25249e-007 1.05918e-006 -6.2549 -6.41338 -13.1642 -2.40319 44.5896 1.84135 11.4559 -22.1559 -2.45689 -2.88238e-015 2.27222e-007 -0 7.21637 -6.28194 13.1065 2.10522 44.3254 -1.69077 -12.2757 -21.7485 2.0663 1.14301e-015 -1.49089e-016 3.18055e-015 
39.848 63.8838 7.57243 -9.97089e-008 -11.8893 -1.85268e-007 -0.203203 6.45397 -0.118035 -0.39674 12.9083 -0.214928 -0.396742 12.9084 -0.214929 9.62561e-007 -29.6748 6.91163e-007 3.90134e-008 -0.613747 -1.41934e-007 -8.00266 -0.194491 -12.5014 30.2464 4.0676 21.3943 -5.14591 -25.5108 -2.00805 -6.88342 1.25945 -0.137996 1.5653e-008 -8.44293e-007 1.05566e-007 -6.59925e-006 2.3713e-006 1.09321e-006 6.74012e-006 1.67004e-007 -1.43109e-007 1.5653e-008 -8.44293e-007 1.05566e-007 -0.012871 0.00233452 8.8611e-005 6.76391e-006 -6.66963e-007 1.55132e-008 1.5653e-008 -8.44293e-007 1.05566e-007 -0.0160564 0.00299773 0.000859154 2.34714e-008 -1.68899e-006 1.58351e-007 1.5653e-008 -8.44293e-007 1.05566e-007 -0.0126791 0.00314497 0.00284552 8.00662e-006 -1.35521e-006 -8.41633e-007 1.5653e-008 -8.44293e-007 1.05566e-007 -6.59925e-006 2.3713e-006 1.09321e-006 6.74012e-006 1.67004e-007 -1.43109e-007 7.13352 -0.0288939 7.03565 -30.2219 2.57707 -16.6909 4.9981 -25.5434 1.62498 6.87368 1.25173 0.312696 -5.11806e-008 -4.23674e-007 -4.23679e-007 2.04722e-007 -4.25631e-007 1.69472e-006 -5.11806e-008 3.72737e-010 -4.23679e-007 -5.11806e-008 -4.23674e-007 -4.23679e-007 0.0129414 0.00231479 -8.47595e-005 -6.39573e-008 -4.23769e-007 -5.29601e-007 -5.11806e-008 -4.23674e-007 -4.23679e-007 0.0163284 0.00303296 -0.000872558 5.96354e-016 -7.95139e-016 3.97569e-016 -5.11806e-008 -4.23674e-007 -4.23679e-007 0.0145785 0.00367615 -0.00326235 -5.11561e-008 -4.23682e-007 -4.23682e-007 -5.11806e-008 -4.23674e-007 -4.23679e-007 2.04722e-007 -4.25631e-007 1.69472e-006 -5.11806e-008 3.72737e-010 -4.23679e-007 -6.26245 -7.13842 -13.1997 -2.40276 44.5853 1.84109 11.4562 -22.1549 -2.45688 8.34266e-007 5.30567e-007 1.64899e-006 7.2271 -7.00651 13.1496 2.10499 44.3219 -1.6906 -12.2761 -21.7477 2.06627 8.45991e-007 3.21099e-008 4.43794e-008 
39.848 63.8317 7.47543 -2.03457e-010 -11.28 -5.62937e-009 -0.205226 6.33339 -0.119282 -0.4008 12.6672 -0.217589 -0.400802 12.6672 -0.21759 5.43279e-007 -29.2313 2.65751e-007 -2.47448e-007 -0.613743 1.73788e-007 -8.00266 -0.194472 -12.5014 30.2466 4.06749 21.3943 -5.14602 -25.5107 -2.00806 -6.88342 1.25944 -0.137976 2.58543e-007 -2.03677e-006 -2.4164e-008 1.17407e-015 0 -1.49089e-016 6.25646e-008 1.54709e-009 4.22272e-007 2.58543e-007 -2.03677e-006 -2.4164e-008 -0.0128142 0.00232448 8.48055e-005 3.42512e-006 -1.59493e-006 2.98438e-007 2.58543e-007 -2.03677e-006 -2.4164e-008 -0.0159705 0.00298296 0.000852979 1.56358e-008 -8.44701e-007 1.05569e-007 2.58543e-007 -2.03677e-006 -2.4164e-008 -0.0125369 0.00311242 0.00281698 -1.5992e-006 -8.8397e-007 6.16148e-007 2.58543e-007 -2.03677e-006 -2.4164e-008 1.17407e-015 0 -1.49089e-016 6.25646e-008 1.54709e-009 4.22272e-007 7.13352 -0.0288793 7.03565 -30.2219 2.57705 -16.6909 4.99809 -25.5434 1.62497 6.87367 1.25173 0.312692 -5.11356e-008 4.24426e-007 -4.23685e-007 -1.37018e-005 -1.17504e-006 -7.1369e-007 -1.11816e-015 0 3.97569e-016 -5.11356e-008 4.24426e-007 -4.23685e-007 0.0129544 0.00232187 -8.92577e-005 -2.80783e-015 0 -0 -5.11356e-008 4.24426e-007 -4.23685e-007 0.0163098 0.00303326 -0.000873602 -4.96962e-017 -1.59028e-015 -0 -5.11356e-008 4.24426e-007 -4.23685e-007 0.0145796 0.00368151 -0.00326851 4.22417e-015 7.95139e-016 -5.96354e-016 -5.11356e-008 4.24426e-007 -4.23685e-007 -1.37018e-005 -1.17504e-006 -7.1369e-007 -1.11816e-015 0 3.97569e-016 -6.27043 -7.86502 -13.2353 -2.40264 44.5822 1.84092 11.4564 -22.154 -2.45688 2.55935e-015 3.47873e-016 3.18055e-015 7.23836 -7.73125 13.193 2.10468 44.3179 -1.69041 -12.2763 -21.7468 2.06626 1.30452e-015 -1.3418e-015 6.36111e-015 
39.8481 63.7804 7.37787 1.4127e-007 -10.6705 6.78054e-008 -0.207169 6.21281 -0.120497 -0.404709 12.426 -0.220202 -0.40471 12.426 -0.220202 3.97937e-007 -28.7874 2.54955e-007 -1.73607e-007 -0.613743 4.5462e-008 -8.00265 -0.194476 -12.5014 30.2464 4.06758 21.3943 -5.1459 -25.5108 -2.00804 -6.88344 1.25944 -0.137996 6.25156e-008 8.1015e-007 4.2228e-007 -3.75827e-015 3.18055e-015 2.48481e-016 -2.16178e-015 1.59028e-015 5.46658e-016 6.25156e-008 8.1015e-007 4.2228e-007 -0.0127667 0.00231763 8.50034e-005 -5.08765e-015 3.18055e-015 -4.47266e-016 6.25156e-008 8.1015e-007 4.2228e-007 -0.0160613 0.00299664 0.000858411 6.2494e-008 1.54089e-009 4.22283e-007 6.25156e-008 8.1015e-007 4.2228e-007 -0.0125377 0.00310942 0.00281666 6.24931e-008 1.53878e-009 4.22283e-007 6.25156e-008 8.1015e-007 4.2228e-007 -3.75827e-015 3.18055e-015 2.48481e-016 -2.16178e-015 1.59028e-015 5.46658e-016 7.13352 -0.0288759 7.03565 -30.2219 2.57707 -16.6909 4.99807 -25.5434 1.62497 6.87367 1.25173 0.312696 1.15871e-005 7.71761e-007 5.03739e-007 -9.93923e-016 -1.59028e-015 -1.98785e-016 -2.5842e-015 0 -0 1.15871e-005 7.71761e-007 5.03739e-007 0.0129608 0.00231965 -8.63068e-005 5.1075e-008 -3.75469e-010 4.23693e-007 1.15871e-005 7.71761e-007 5.03739e-007 0.0163264 0.0030328 -0.000873749 -2.43511e-015 7.95139e-016 1.39149e-015 1.15871e-005 7.71761e-007 5.03739e-007 0.0145905 0.00368199 -0.00326504 5.10653e-008 -3.72367e-010 4.23694e-007 1.15871e-005 7.71761e-007 5.03739e-007 -9.93923e-016 -1.59028e-015 -1.98785e-016 -2.5842e-015 0 -0 -6.27899 -8.59085 -13.2712 -2.40214 44.578 1.8407 11.4567 -22.1532 -2.45683 -1.68716e-006 4.11417e-007 -1.68792e-006 7.25016 -8.45703 13.2366 2.10457 44.3147 -1.69026 -12.2766 -21.746 2.06624 -2.16178e-015 2.27124e-007 3.18055e-015 
39.8481 63.7297 7.27974 -1.78343e-008 -10.0608 -4.59501e-008 -0.209158 6.0922 -0.121691 -0.408717 12.1848 -0.222773 -0.408718 12.1849 -0.222773 -1.37034e-006 -28.3431 -7.03715e-007 -1.46367e-007 -0.613742 1.00844e-007 -8.00266 -0.194443 -12.5014 30.2466 4.06749 21.3943 -5.146 -25.5106 -2.00804 -6.88344 1.25944 -0.137978 7.80809e-009 -8.44725e-007 5.27859e-008 -7.02729e-008 8.43186e-007 -4.75073e-007 6.24648e-008 1.53848e-009 4.22287e-007 7.80809e-009 -8.44725e-007 5.27859e-008 -0.0129011 0.00233907 8.54172e-005 6.2448e-008 1.53748e-009 4.22289e-007 7.80809e-009 -8.44725e-007 5.27859e-008 -0.0161576 0.00301545 0.000863486 7.02485e-008 -8.43194e-007 4.75076e-007 7.80809e-009 -8.44725e-007 5.27859e-008 -0.012699 0.00314906 0.00285099 -4.61221e-008 -4.96821e-007 1.3951e-006 7.80809e-009 -8.44725e-007 5.27859e-008 -7.02729e-008 8.43186e-007 -4.75073e-007 6.24648e-008 1.53848e-009 4.22287e-007 7.13351 -0.0288445 7.03565 -30.2219 2.57705 -16.6909 4.99809 -25.5434 1.62497 6.87366 1.25172 0.312689 8.59417e-006 3.74234e-006 5.45269e-007 8.08058e-006 -1.75679e-006 -8.27387e-008 5.10433e-008 -4.12091e-007 4.23697e-007 8.59417e-006 3.74234e-006 5.45269e-007 0.0129524 0.00231573 -8.72663e-005 -5.09386e-015 3.18055e-015 5.96354e-016 8.59417e-006 3.74234e-006 5.45269e-007 0.0163246 0.00303125 -0.000872949 5.10238e-008 4.23686e-007 4.23699e-007 8.59417e-006 3.74234e-006 5.45269e-007 0.0145742 0.00367476 -0.00326154 6.37734e-008 4.2383e-007 5.29624e-007 8.59417e-006 3.74234e-006 5.45269e-007 8.08058e-006 -1.75679e-006 -8.27387e-008 5.10433e-008 -4.12091e-007 4.23697e-007 -6.28791 -9.31785 -13.3073 -2.40196 44.5745 1.84051 11.457 -22.1522 -2.45682 -1.73651e-009 -6.31471e-010 1.60617e-006 7.26258 -9.18241 13.2805 2.10422 44.3106 -1.69006 -12.2769 -21.7451 2.06625 -4.42606e-016 -1.00014e-015 -0 
